<svg
    xmlns="http://www.w3.org/2000/svg"
    viewBox="0 20 1500 450">
    <rect
        rx="40" ry="40"
        y="50" x="30"
        height="390" width="1430"
        style="fill:#ffffff;fill-opacity:1;stroke:none;" />
    <g transform="translate(-700,-1211)" style="fill-opacity:1;stroke:none">
        <path style="fill:#0672ba" d="m 857.14236,1515.2145 c 0,15.9 8.10002,23.4 23.4,23.4 15.59999,0 23.4,-7.5 23.4,-23.4 l 0,-50.7 c 0,-15.5999 -8.40001,-23.1 -23.7,-23.1 -14.99998,0 -23.1,7.5001 -23.1,23.1 l 0,50.7 m -4.2,-118.5 c 0,15 12.00002,26.7 26.7,26.7 15.29999,0 27,-11.7 27,-26.7 0,-14.9999 -11.70001,-26.7 -27,-26.7 -14.69998,0 -26.7,11.7001 -26.7,26.7" />
        <path style="fill:#0672ba" d="m 998.38611,1340.0145 c -5.09999,-4.2 -9.9,-6 -15.6,-6 -11.99999,0 -22.5,9.6001 -22.5,21.9 0,5.4 2.40001,11.1 6.6,16.2 19.49998,23.1 29.1,54.0001 29.1,84.6 0,29.7 -7.50002,65.4001 -30.6,88.8 -3.6,5.1 -5.1,11.1 -5.1,15.6 0,12.9 9.90001,21.6 22.2,21.6 5.99999,0 12.00001,-1.8 17.4,-7.5 29.99999,-29.9999 41.39999,-78.3 41.39999,-120 0,-41.0999 -12.3,-82.2 -42.89999,-115.2" />
        <g transform="translate(87.311026,0)" style="fill:#db2e13;">
            <path d="m 1026.5888,1422.0753 c 0,11.2625 7.5083,14.7664 17.5194,15.7675 l 0,60.0665 c 0,33.0366 8.2592,53.0587 44.0488,53.0587 13.515,0 20.773,-6.5072 20.773,-18.7708 0,-12.5138 -7.258,-18.7707 -20.773,-18.7707 -4.7553,0 -5.2558,-5.0056 -5.2558,-15.5172 l 0,-59.566 11.2625,0 c 13.2646,0 19.5216,-3.5039 19.5216,-16.0177 0,-13.0144 -6.7575,-16.268 -20.0222,-16.268 l -10.7619,0 0,-9.7608 c 0,-12.5139 -6.5072,-19.0211 -19.5216,-19.0211 -12.7642,0 -19.2714,6.5072 -19.2714,19.0211 l 0,9.7608 c -10.2613,1.2513 -17.5194,5.0055 -17.5194,16.0177 z" />
            <path d="m 1166.6032,1424.3278 c 0,-13.2647 -6.0066,-19.2713 -19.2713,-19.2713 -12.7641,0 -19.0211,6.0066 -19.0211,19.2713 l 0,66.824 c 0,37.7918 21.7742,59.3157 44.7997,59.3157 13.7652,0 28.031,-7.5083 38.5426,-21.5239 l 0,7.5084 c 0.2503,11.2624 8.0089,15.7674 14.7664,15.7674 13.0144,0 19.2713,-6.5072 19.2713,-18.5205 l 0,-110.1219 c 0,-13.2647 -6.2569,-19.7719 -19.2713,-19.7719 -14.0155,0 -18.5205,7.258 -18.5205,19.7719 l 0,52.5582 c 0,24.0266 -12.0133,37.041 -23.7764,37.041 -8.7597,0 -17.2691,-4.505 -17.2691,-29.0322 l -0.2503,-59.8162 z" />
            <path d="m 1262.6901,1422.0753 c 0,11.2625 7.5083,14.7664 17.5194,15.7675 l 0,60.0665 c 0,33.0366 8.2592,53.0587 44.0488,53.0587 13.515,0 20.773,-6.5072 20.773,-18.7708 0,-12.5138 -7.258,-18.7707 -20.773,-18.7707 -4.7553,0 -5.2558,-5.0056 -5.2558,-15.5172 l 0,-59.566 11.2624,0 c 13.2647,0 19.5217,-3.5039 19.5217,-16.0177 0,-13.0144 -6.7575,-16.268 -20.0222,-16.268 l -10.7619,0 0,-9.7608 c 0,-12.5139 -6.5072,-19.0211 -19.5216,-19.0211 -12.7642,0 -19.2714,6.5072 -19.2714,19.0211 l 0,9.7608 c -10.2614,1.2513 -17.5194,5.0055 -17.5194,16.0177 z" />
            <path d="m 1417.5139,1401.8029 c -42.7974,0 -65.0721,34.5382 -65.0721,73.3312 0,39.0432 22.2747,76.0842 65.0721,76.0842 42.2968,0 65.0721,-35.0388 65.0721,-74.5826 0,-38.5427 -22.525,-74.8328 -65.0721,-74.8328 z m 0,35.5393 c 17.7697,0 25.5283,23.2758 25.5283,40.7952 0,17.7697 -7.7586,38.0421 -25.5283,38.0421 -17.7697,0 -25.5283,-24.7774 -25.5283,-42.2968 0,-18.02 7.7586,-36.5405 25.5283,-36.5405 z" />
            <path d="m 1501.0791,1529.6945 c 0,12.7641 6.5072,19.2713 19.2713,19.2713 13.2647,0 19.2714,-6.5072 19.2714,-19.2713 l 0,-69.8274 c 0,-11.0121 11.0122,-18.7707 20.5227,-18.7707 2.5028,0 4.0044,0.5005 5.7564,0.7508 2.5027,0.5005 5.7564,0.7508 9.2602,0.7508 11.5128,0 19.7719,-9.2602 19.7719,-19.5216 0,-10.2614 -7.5083,-21.2735 -27.5305,-21.2735 -10.5116,0 -26.7796,10.2613 -31.0343,18.5205 -0.5006,-11.7631 -8.2592,-16.5183 -16.0178,-16.5183 -12.7641,0 -19.2713,6.5072 -19.2713,20.0221 l 0,105.8673 z" />
            <path d="m 1614.2825,1529.4442 c 0,13.2647 6.7575,19.5216 19.5217,19.5216 13.0144,0 19.5216,-6.2569 19.5216,-19.5216 l 0,-104.8661 c 0,-13.0144 -7.0078,-19.2714 -19.7719,-19.2714 -12.5139,0 -19.2714,6.257 -19.2714,19.2714 l 0,104.8661 z m -3.5038,-161.4288 c 0,12.5139 10.011,22.2747 22.2746,22.2747 12.7642,0 22.525,-9.7608 22.525,-22.2747 0,-12.5138 -9.7608,-22.2746 -22.525,-22.2746 -12.2636,0 -22.2746,9.7608 -22.2746,22.2746 z" />
            <path d="m 1699.0679,1410.062 c -8.0089,3.2536 -13.0144,8.7597 -13.0144,15.7675 0,12.7641 9.0099,15.7674 18.5205,15.7674 9.0099,0 17.2691,-3.2536 27.5304,-3.2536 14.0156,0 30.5339,9.01 30.5339,23.7763 l 0,12.2636 c -9.01,-6.5072 -22.2747,-10.2613 -35.7897,-10.2613 -32.0354,0 -50.8062,23.526 -50.8062,46.051 0,20.773 16.268,40.5449 44.7996,40.5449 14.0155,0 29.0321,-5.7564 40.7952,-18.2703 l 0,4.7553 c 0.7508,10.2614 11.5127,13.515 15.7674,13.515 12.2636,0 19.5216,-9.2603 19.5216,-19.2714 l 0,-74.8329 c 0,-38.2924 -31.5349,-53.309 -63.3201,-53.309 -11.5127,0 -23.526,2.2525 -34.5382,6.7575 z m 16.268,95.1053 c 0,-8.0089 10.5116,-11.5127 21.0233,-11.5127 10.011,0 21.0232,3.7541 21.0232,10.2613 0,8.7597 -12.0133,13.2647 -23.2757,13.2647 -9.2603,0 -18.7708,-4.0044 -18.7708,-12.0133 z" />
            <path d="m 1811.5909,1529.4442 c 0,13.2647 6.2569,19.5216 19.5216,19.5216 13.0144,0 19.2713,-6.2569 19.2713,-19.5216 l 0,-163.431 c 0,-12.7641 -6.7574,-19.7719 -19.5216,-19.7719 -12.7641,0 -19.2713,7.0078 -19.2713,19.7719 l 0,163.431 z" />
            <path d="m 1931.8999,1517.9314 c -19.5216,0 -26.7796,-13.7652 -41.7962,-13.7652 -9.01,0 -18.02,5.2558 -18.02,16.5183 0,6.0066 2.5028,12.2636 7.7586,16.0177 14.0155,8.5095 28.7819,14.5161 47.8029,14.5161 27.2802,0 56.8129,-12.7641 56.8129,-45.8007 0,-41.2957 -71.3289,-45.8007 -71.3289,-63.0699 0,-6.7574 5.0055,-9.0099 11.5127,-9.0099 14.7663,0 24.7774,8.2591 37.7918,8.2591 11.2625,0 17.2691,-8.5094 17.2691,-16.7686 0,-6.0066 -3.2536,-12.2635 -10.011,-16.0177 -13.0145,-6.7575 -27.03,-8.7597 -40.0444,-8.7597 -29.5327,0 -55.3112,13.7653 -55.3112,44.5493 0,43.298 69.8273,44.2991 69.8273,64.3213 0,6.5072 -5.2558,9.0099 -12.2636,9.0099 z" />
        </g>
    </g>
</svg>